<?xml version="1.0" encoding="utf-8"?>
<!-- Generator: Adobe Illustrator 27.5.0, SVG Export Plug-In . SVG Version: 6.00 Build 0)  -->
<svg version="1.1" id="Capa_1" xmlns="http://www.w3.org/2000/svg" xmlns:xlink="http://www.w3.org/1999/xlink" x="0px" y="0px"
	 viewBox="0 0 2122 2122" style="enable-background:new 0 0 2122 2122;" xml:space="preserve">
<g>
	<path style="fill:#CE1A27;" d="M1645.634,1344.791c-93.499,22.44-189.409,33.98-284.692,33.98
		c-89.529,0-178.504-10.189-264.407-31.098l-0.747,0.433l-44.078,153.443l-47.625-180.696l-0.4-0.431
		c-82.352-28.483-160.776-67.687-232.906-118.013l-0.571-0.074l-0.388,0.425l-34.757,130.846l-165.877-282.339l-0.438-0.299
		l-0.51,0.146l-73.899,64.61l-190.565,0.071l-0.541,0.314l0.004,0.626c165.882,281.511,439.597,488.3,713.031,657.382
		c4.121,2.547,46.666,26.575,46.674,26.579l0.627-0.008c0.003-0.002,9.823-5.871,27.255-16.787
		c86.908-54.424,363.013-234.272,555.407-438.077l0.086-0.74L1645.634,1344.791z"/>
	<path style="fill:#CE1A27;" d="M479.384,1075.264l81.801-71.521l0.078-0.857C439.765,849.489,356.806,658.983,345.658,462.231
		l-0.384-0.541l-0.654,0.11c-3.521,3.133-9.086,9.228-14.593,15.545c-11.668,13.388-25.412,29.926-29.695,35.641
		c-14.559,19.431-27.647,39.964-39.103,61.373c-22.046,41.197-38.38,85.894-47.253,131.804c-5.856,30.299-8.613,60.529-8.613,90.537
		c0,91.194,25.459,180.326,66.761,263.124c2.545,5.101,5.172,10.186,7.835,15.26l0.553,0.334h198.461L479.384,1075.264z"/>
	<path style="fill:#E73A3A;" d="M871.786,820.706l-0.604,0.464l-101.36,381.591l0.246,0.672
		c72.228,50.395,150.755,89.65,233.212,118.169l0.628-0.132l0.179-0.616L872.388,821.172L871.786,820.706z"/>
	<path style="fill:#E73A3A;" d="M1441.893,320.542c-153.934,0-290.834,72.571-378.643,185.266
		c-87.805-112.695-224.707-185.267-378.64-185.266c-132.897,0-253.115,54.093-340.01,141.379l-0.181,0.475
		c11.19,197.025,94.25,387.715,215.867,541.265l0.432,0.234l0.468-0.152l17.725-15.497L641.7,1095.12l0.096,0.125
		c9.767,9.782,19.673,19.377,29.754,28.701c20.142,18.763,41.065,36.32,62.545,52.943l0.582,0.097l0.403-0.431l136.859-515.233
		l177.821,674.667l0.428,0.44c1.955,0.572,3.908,1.162,5.877,1.725l0.771-0.427l138.157-480.974l116.598,305.094l0.435,0.383
		l0.562-0.14l107.916-95.925l71.126,92.046l0.444,0.24l0.477-0.168l87.919-82.866l265.52,0l0.552-0.334
		c46.652-88.905,75.218-181.404,75.218-274.676C1921.758,535.385,1706.916,320.542,1441.893,320.542z"/>
	<path style="fill:#E73A3A;" d="M1596.719,1115.724l-0.428,0.17l-108.95,102.688l-71.922-93.078l-0.436-0.24l-0.473,0.155
		l-119.424,106.155l-94-245.974l-0.609-0.401l-0.573,0.451l-104.114,362.455l0.06,0.485l0.391,0.292
		c86.006,20.934,175.079,31.134,264.702,31.134c95.382,0,191.387-11.553,284.982-34.014l0.305-0.176l3.06-3.198
		c66.356-70.643,126.92-146.656,174.013-225.964l0.006-0.627l-0.542-0.315H1596.719z"/>
	<path style="fill:#CE1A27;" d="M1053.402,1348.017l0.607-0.452l2.826-9.837l-0.054-0.475l-0.374-0.297
		c-1.956-0.559-3.907-1.15-5.87-1.723l-0.611,0.152l-0.168,0.606l3.047,11.562L1053.402,1348.017z"/>
	<path style="fill:#CE1A27;" d="M720.767,1228.943l0.518-0.458l13.794-51.929l-0.221-0.653
		c-21.453-16.602-42.347-34.135-62.46-52.87c-10.068-9.313-19.962-18.896-29.72-28.669l-0.823-0.053l-0.156,0.809l78.445,133.52
		L720.767,1228.943z"/>
	<path style="fill:#EC6159;" d="M1617.521,412.065c-50.202-22.596-104.839-33.341-159.615-33.341
		c-64.519,0-129.232,14.906-187.132,42.926c-25.5,12.34-76.644,39.797-121.452,73.568c-44.785,33.787-83.34,73.813-83.392,111.72
		c-0.003,10.961,3.256,21.729,10.525,32.021c20.99,29.718,58.769,41.511,95.682,41.512c7.183,0,14.335-0.447,21.331-1.296
		c42.923-5.219,83.426-22.376,125.805-29.808c14.591-2.561,29.317-3.797,44.025-3.798c115.541-0.01,229.955,76.334,269.158,185.908
		c10.298,28.769,18.712,62.265,32.033,90.359c13.311,28.083,31.604,50.845,61.663,57.858c5.255,1.226,10.571,1.805,15.875,1.805
		c26.069-0.006,51.838-13.965,69.178-33.917c20.85-24.004,31.219-55.292,37.433-86.352c4.822-24.113,7.144-48.557,7.144-72.983
		C1855.775,632.084,1760.886,476.606,1617.521,412.065z"/>
	<path style="fill:#1D2342;" d="M1930.763,1074.172h-84.775l-265.767-0.001l-0.428,0.17l-87.6,82.564l-71.113-92.03l-0.436-0.24
		l-0.473,0.155l-107.742,95.769L1195.49,854.564l-0.609-0.4l-0.573,0.451l-138.673,482.769l-2.201,7.66l-2.469-9.371
		L872.544,658.726l-0.603-0.464l-0.603,0.463l-137.465,517.512l-13.41,50.485l-77.689-132.233l-63.171-107.524l-0.438-0.299
		l-0.51,0.146l-18.292,15.992l-81.625,71.367H280.513h-0.001h-89.956c-11.82,0.001-21.401,9.581-21.401,21.401
		c0,11.819,9.581,21.4,21.401,21.4h0h113.178h190.842l0.411-0.154l73.508-64.269l166.252,282.979l0.622,0.302l0.518-0.458
		l35.14-132.29L871.781,823.77l131.099,497.401l48.203,182.888l0.596,0.464l0.607-0.451l44.703-155.622l103.599-360.661
		l93.657,245.074l0.434,0.383l0.562-0.14l119.599-106.311l71.935,93.094l0.444,0.24l0.477-0.168l109.27-102.99h225.801h107.997
		c11.818,0,21.399-9.581,21.399-21.4C1952.163,1083.752,1942.582,1074.172,1930.763,1074.172z"/>
</g>
</svg>
