<svg width="32" height="32" viewBox="0 0 32 32" fill="none" xmlns="http://www.w3.org/2000/svg">
  <!-- Heart shape -->
  <path d="M16 26.5C16 26.5 6 18.5 6 13C6 10 8 8 11 8C12.5 8 14 9 16 11C18 9 19.5 8 21 8C24 8 26 10 26 13C26 18.5 16 26.5 16 26.5Z" fill="#DC2626"/>
  
  <!-- Heartbeat line -->
  <path d="M4 16L6 16L7 15L8 19L9 9L10 16L11 13L12 15L13 16H14L15 13L16 19L17 9L18 16L19 15L20 16L22 16L23 15L24 19L25 9L26 16L27 13L28 15L29 16" 
        stroke="#FFFFFF" 
        stroke-width="1.5" 
        stroke-linecap="round" 
        stroke-linejoin="round"
        fill="none"/>
</svg>